<svg xmlns="http://www.w3.org/2000/svg" xmlns:xlink="http://www.w3.org/1999/xlink" width="320" zoomAndPan="magnify" viewBox="0 0 96 95.999999" height="480" preserveAspectRatio="xMidYMid meet" version="1.0"><defs><g/><clipPath id="id1"><path d="M 0.765625 0.765625 L 95.265625 0.765625 L 95.265625 95.265625 L 0.765625 95.265625 Z M 0.765625 0.765625 " clip-rule="nonzero"/></clipPath><clipPath id="id2"><path d="M 38.28125 31.09375 L 56.738281 31.09375 L 56.738281 43.84375 L 38.28125 43.84375 Z M 38.28125 31.09375 " clip-rule="nonzero"/></clipPath></defs><g clip-path="url(#id1)"><path fill="#ffffff" d="M 95.265625 48.015625 C 95.265625 49.5625 95.191406 51.109375 95.039062 52.648438 C 94.886719 54.1875 94.660156 55.71875 94.359375 57.234375 C 94.058594 58.753906 93.679688 60.25 93.230469 61.734375 C 92.78125 63.214844 92.261719 64.667969 91.671875 66.097656 C 91.078125 67.527344 90.417969 68.925781 89.6875 70.289062 C 88.957031 71.65625 88.164062 72.980469 87.304688 74.265625 C 86.445312 75.554688 85.523438 76.796875 84.542969 77.992188 C 83.558594 79.1875 82.523438 80.332031 81.425781 81.425781 C 80.332031 82.523438 79.1875 83.558594 77.992188 84.542969 C 76.796875 85.523438 75.554688 86.445312 74.265625 87.304688 C 72.980469 88.164062 71.65625 88.957031 70.289062 89.6875 C 68.925781 90.417969 67.527344 91.078125 66.097656 91.671875 C 64.667969 92.261719 63.214844 92.78125 61.734375 93.230469 C 60.25 93.679688 58.753906 94.058594 57.234375 94.359375 C 55.71875 94.660156 54.1875 94.886719 52.648438 95.039062 C 51.109375 95.191406 49.5625 95.265625 48.015625 95.265625 C 46.46875 95.265625 44.925781 95.191406 43.386719 95.039062 C 41.84375 94.886719 40.316406 94.660156 38.796875 94.359375 C 37.28125 94.058594 35.78125 93.679688 34.300781 93.230469 C 32.820312 92.78125 31.363281 92.261719 29.933594 91.671875 C 28.503906 91.078125 27.109375 90.417969 25.742188 89.6875 C 24.378906 88.957031 23.054688 88.164062 21.765625 87.304688 C 20.480469 86.445312 19.238281 85.523438 18.042969 84.542969 C 16.84375 83.558594 15.699219 82.523438 14.605469 81.425781 C 13.511719 80.332031 12.472656 79.1875 11.492188 77.992188 C 10.511719 76.796875 9.589844 75.554688 8.730469 74.265625 C 7.871094 72.980469 7.074219 71.65625 6.347656 70.289062 C 5.617188 68.925781 4.957031 67.527344 4.363281 66.097656 C 3.769531 64.667969 3.25 63.214844 2.800781 61.734375 C 2.351562 60.25 1.976562 58.753906 1.675781 57.234375 C 1.371094 55.71875 1.144531 54.1875 0.996094 52.648438 C 0.84375 51.109375 0.765625 49.5625 0.765625 48.015625 C 0.765625 46.46875 0.84375 44.925781 0.996094 43.386719 C 1.144531 41.84375 1.371094 40.316406 1.675781 38.796875 C 1.976562 37.28125 2.351562 35.78125 2.800781 34.300781 C 3.25 32.820312 3.769531 31.363281 4.363281 29.933594 C 4.957031 28.503906 5.617188 27.109375 6.347656 25.742188 C 7.074219 24.378906 7.871094 23.054688 8.730469 21.765625 C 9.589844 20.480469 10.511719 19.238281 11.492188 18.042969 C 12.472656 16.84375 13.511719 15.699219 14.605469 14.605469 C 15.699219 13.511719 16.84375 12.472656 18.042969 11.492188 C 19.238281 10.511719 20.480469 9.589844 21.765625 8.730469 C 23.054688 7.871094 24.378906 7.074219 25.742188 6.347656 C 27.109375 5.617188 28.503906 4.957031 29.933594 4.363281 C 31.363281 3.769531 32.820312 3.25 34.300781 2.800781 C 35.78125 2.351562 37.28125 1.976562 38.796875 1.675781 C 40.316406 1.371094 41.84375 1.144531 43.386719 0.996094 C 44.925781 0.84375 46.46875 0.765625 48.015625 0.765625 C 49.5625 0.765625 51.109375 0.84375 52.648438 0.996094 C 54.1875 1.144531 55.71875 1.371094 57.234375 1.675781 C 58.753906 1.976562 60.25 2.351562 61.734375 2.800781 C 63.214844 3.25 64.667969 3.769531 66.097656 4.363281 C 67.527344 4.957031 68.925781 5.617188 70.289062 6.347656 C 71.65625 7.074219 72.980469 7.871094 74.265625 8.730469 C 75.554688 9.589844 76.796875 10.511719 77.992188 11.492188 C 79.1875 12.472656 80.332031 13.511719 81.425781 14.605469 C 82.523438 15.699219 83.558594 16.84375 84.542969 18.042969 C 85.523438 19.238281 86.445312 20.480469 87.304688 21.765625 C 88.164062 23.054688 88.957031 24.378906 89.6875 25.742188 C 90.417969 27.109375 91.078125 28.503906 91.671875 29.933594 C 92.261719 31.363281 92.78125 32.820312 93.230469 34.300781 C 93.679688 35.78125 94.058594 37.28125 94.359375 38.796875 C 94.660156 40.316406 94.886719 41.84375 95.039062 43.386719 C 95.191406 44.925781 95.265625 46.46875 95.265625 48.015625 Z M 95.265625 48.015625 " fill-opacity="1" fill-rule="nonzero"/></g><g clip-path="url(#id2)"><path fill="#000000" d="M 38.480469 34.511719 L 47.550781 31.128906 C 47.621094 31.105469 47.695312 31.105469 47.761719 31.128906 L 56.832031 34.511719 C 56.953125 34.554688 57.03125 34.671875 57.03125 34.800781 C 57.03125 34.925781 56.953125 35.042969 56.832031 35.085938 L 52.492188 36.703125 L 52.492188 40.4375 C 52.492188 41.671875 50.1875 42.796875 47.65625 42.796875 C 45.125 42.796875 42.820312 41.671875 42.820312 40.4375 L 42.820312 36.703125 L 40.484375 35.832031 L 40.484375 41.265625 C 40.730469 41.367188 40.902344 41.609375 40.902344 41.894531 C 40.902344 42.144531 40.773438 42.359375 40.578125 42.476562 C 40.863281 42.679688 41.0625 43.085938 41.0625 43.351562 L 41.0625 43.484375 C 41.0625 43.679688 40.863281 43.835938 40.621094 43.835938 L 39.839844 43.835938 C 39.597656 43.835938 39.398438 43.679688 39.398438 43.484375 L 39.398438 43.351562 C 39.398438 43.085938 39.597656 42.679688 39.882812 42.476562 C 39.6875 42.359375 39.554688 42.144531 39.554688 41.894531 C 39.554688 41.609375 39.730469 41.367188 39.976562 41.265625 L 39.976562 35.644531 L 38.480469 35.085938 C 38.359375 35.042969 38.28125 34.925781 38.28125 34.800781 C 38.28125 34.671875 38.359375 34.554688 38.480469 34.511719 Z M 43.425781 40.4375 C 43.425781 41.125 45.242188 42.183594 47.65625 42.183594 C 50.070312 42.183594 51.886719 41.125 51.886719 40.4375 L 51.886719 36.929688 L 47.761719 38.46875 C 47.726562 38.480469 47.691406 38.488281 47.65625 38.488281 C 47.621094 38.488281 47.585938 38.480469 47.550781 38.46875 L 43.425781 36.929688 Z M 39.980469 34.992188 L 47.144531 34.273438 C 47.226562 34.066406 47.425781 33.921875 47.65625 33.921875 C 47.960938 33.921875 48.207031 34.167969 48.207031 34.476562 C 48.207031 34.785156 47.960938 35.035156 47.65625 35.035156 C 47.464844 35.035156 47.292969 34.933594 47.195312 34.78125 L 41.0625 35.398438 L 47.65625 37.855469 L 55.855469 34.800781 L 47.65625 31.742188 L 39.457031 34.800781 Z M 39.980469 34.992188 " fill-opacity="1" fill-rule="nonzero"/></g><g fill="#000000" fill-opacity="1"><g transform="translate(32.169323, 66.399412)"><g><path d="M 1.3125 -4.84375 C 1.675781 -4.84375 1.945312 -4.734375 2.125 -4.515625 C 2.300781 -4.296875 2.390625 -4.003906 2.390625 -3.640625 L 2.390625 -3.203125 L 1.875 -3.203125 L 1.875 -3.65625 C 1.875 -3.875 1.828125 -4.046875 1.734375 -4.171875 C 1.648438 -4.296875 1.515625 -4.359375 1.328125 -4.359375 C 1.128906 -4.359375 0.984375 -4.296875 0.890625 -4.171875 C 0.804688 -4.046875 0.765625 -3.875 0.765625 -3.65625 L 0.765625 -1.125 C 0.765625 -0.90625 0.804688 -0.734375 0.890625 -0.609375 C 0.984375 -0.492188 1.128906 -0.4375 1.328125 -0.4375 C 1.515625 -0.4375 1.648438 -0.492188 1.734375 -0.609375 C 1.828125 -0.734375 1.875 -0.90625 1.875 -1.125 L 1.875 -1.75 L 2.390625 -1.75 L 2.390625 -1.15625 C 2.390625 -0.789062 2.300781 -0.5 2.125 -0.28125 C 1.945312 -0.0625 1.675781 0.046875 1.3125 0.046875 C 0.945312 0.046875 0.675781 -0.0625 0.5 -0.28125 C 0.320312 -0.5 0.234375 -0.789062 0.234375 -1.15625 L 0.234375 -3.640625 C 0.234375 -3.816406 0.253906 -3.976562 0.296875 -4.125 C 0.335938 -4.28125 0.398438 -4.410156 0.484375 -4.515625 C 0.578125 -4.617188 0.691406 -4.695312 0.828125 -4.75 C 0.960938 -4.8125 1.125 -4.84375 1.3125 -4.84375 Z M 1.3125 -4.84375 "/></g></g></g><g fill="#000000" fill-opacity="1"><g transform="translate(35.739834, 66.399412)"><g><path d="M 0.234375 -3.640625 C 0.234375 -4.003906 0.320312 -4.296875 0.5 -4.515625 C 0.675781 -4.734375 0.953125 -4.84375 1.328125 -4.84375 C 1.691406 -4.84375 1.960938 -4.734375 2.140625 -4.515625 C 2.328125 -4.296875 2.421875 -4.003906 2.421875 -3.640625 L 2.421875 -1.15625 C 2.421875 -0.789062 2.328125 -0.5 2.140625 -0.28125 C 1.960938 -0.0625 1.691406 0.046875 1.328125 0.046875 C 0.953125 0.046875 0.675781 -0.0625 0.5 -0.28125 C 0.320312 -0.5 0.234375 -0.789062 0.234375 -1.15625 Z M 0.765625 -1.125 C 0.765625 -0.90625 0.8125 -0.734375 0.90625 -0.609375 C 1 -0.492188 1.140625 -0.4375 1.328125 -0.4375 C 1.523438 -0.4375 1.664062 -0.492188 1.75 -0.609375 C 1.84375 -0.734375 1.890625 -0.90625 1.890625 -1.125 L 1.890625 -3.65625 C 1.890625 -3.875 1.84375 -4.046875 1.75 -4.171875 C 1.664062 -4.296875 1.523438 -4.359375 1.328125 -4.359375 C 1.140625 -4.359375 1 -4.296875 0.90625 -4.171875 C 0.8125 -4.046875 0.765625 -3.875 0.765625 -3.65625 Z M 0.765625 -1.125 "/></g></g></g><g fill="#000000" fill-opacity="1"><g transform="translate(39.371906, 66.399412)"><g><path d="M 1.390625 -4.796875 C 1.765625 -4.796875 2.039062 -4.6875 2.21875 -4.46875 C 2.394531 -4.257812 2.484375 -3.96875 2.484375 -3.59375 L 2.484375 -1.1875 C 2.484375 -0.8125 2.394531 -0.519531 2.21875 -0.3125 C 2.039062 -0.101562 1.765625 0 1.390625 0 L 0.28125 0 L 0.28125 -4.796875 Z M 1.390625 -0.484375 C 1.578125 -0.484375 1.71875 -0.539062 1.8125 -0.65625 C 1.90625 -0.769531 1.953125 -0.9375 1.953125 -1.15625 L 1.953125 -3.625 C 1.953125 -3.84375 1.90625 -4.007812 1.8125 -4.125 C 1.71875 -4.25 1.570312 -4.3125 1.375 -4.3125 L 0.8125 -4.3125 L 0.8125 -0.484375 Z M 1.390625 -0.484375 "/></g></g></g><g fill="#000000" fill-opacity="1"><g transform="translate(43.051859, 66.399412)"><g><path d="M 1.125 -1.71875 L 0.109375 -4.796875 L 0.65625 -4.796875 L 1.40625 -2.4375 L 2.15625 -4.796875 L 2.671875 -4.796875 L 1.65625 -1.71875 L 1.65625 0 L 1.125 0 Z M 1.125 -1.71875 "/></g></g></g><g fill="#000000" fill-opacity="1"><g transform="translate(46.800218, 66.399412)"><g><path d="M 2.21875 -0.96875 L 2.21875 0 L 1.703125 0 L 1.703125 -0.96875 L 0.15625 -0.96875 L 0.15625 -1.453125 L 1.640625 -4.796875 L 2.21875 -4.796875 L 2.21875 -1.453125 L 2.59375 -1.453125 L 2.59375 -0.96875 Z M 0.640625 -1.453125 L 1.703125 -1.453125 L 1.703125 -3.796875 Z M 0.640625 -1.453125 "/></g></g></g><g fill="#000000" fill-opacity="1"><g transform="translate(50.507533, 66.399412)"><g><path d="M 1.3125 -4.84375 C 1.675781 -4.84375 1.945312 -4.734375 2.125 -4.515625 C 2.300781 -4.296875 2.390625 -4.003906 2.390625 -3.640625 L 2.390625 -3.203125 L 1.875 -3.203125 L 1.875 -3.65625 C 1.875 -3.875 1.828125 -4.046875 1.734375 -4.171875 C 1.648438 -4.296875 1.515625 -4.359375 1.328125 -4.359375 C 1.128906 -4.359375 0.984375 -4.296875 0.890625 -4.171875 C 0.804688 -4.046875 0.765625 -3.875 0.765625 -3.65625 L 0.765625 -1.125 C 0.765625 -0.90625 0.804688 -0.734375 0.890625 -0.609375 C 0.984375 -0.492188 1.128906 -0.4375 1.328125 -0.4375 C 1.515625 -0.4375 1.648438 -0.492188 1.734375 -0.609375 C 1.828125 -0.734375 1.875 -0.90625 1.875 -1.125 L 1.875 -1.75 L 2.390625 -1.75 L 2.390625 -1.15625 C 2.390625 -0.789062 2.300781 -0.5 2.125 -0.28125 C 1.945312 -0.0625 1.675781 0.046875 1.3125 0.046875 C 0.945312 0.046875 0.675781 -0.0625 0.5 -0.28125 C 0.320312 -0.5 0.234375 -0.789062 0.234375 -1.15625 L 0.234375 -3.640625 C 0.234375 -3.816406 0.253906 -3.976562 0.296875 -4.125 C 0.335938 -4.28125 0.398438 -4.410156 0.484375 -4.515625 C 0.578125 -4.617188 0.691406 -4.695312 0.828125 -4.75 C 0.960938 -4.8125 1.125 -4.84375 1.3125 -4.84375 Z M 1.3125 -4.84375 "/></g></g></g><g fill="#000000" fill-opacity="1"><g transform="translate(54.078043, 66.399412)"><g><path d="M 0.234375 -3.640625 C 0.234375 -4.003906 0.320312 -4.296875 0.5 -4.515625 C 0.675781 -4.734375 0.953125 -4.84375 1.328125 -4.84375 C 1.691406 -4.84375 1.960938 -4.734375 2.140625 -4.515625 C 2.328125 -4.296875 2.421875 -4.003906 2.421875 -3.640625 L 2.421875 -1.15625 C 2.421875 -0.789062 2.328125 -0.5 2.140625 -0.28125 C 1.960938 -0.0625 1.691406 0.046875 1.328125 0.046875 C 0.953125 0.046875 0.675781 -0.0625 0.5 -0.28125 C 0.320312 -0.5 0.234375 -0.789062 0.234375 -1.15625 Z M 0.765625 -1.125 C 0.765625 -0.90625 0.8125 -0.734375 0.90625 -0.609375 C 1 -0.492188 1.140625 -0.4375 1.328125 -0.4375 C 1.523438 -0.4375 1.664062 -0.492188 1.75 -0.609375 C 1.84375 -0.734375 1.890625 -0.90625 1.890625 -1.125 L 1.890625 -3.65625 C 1.890625 -3.875 1.84375 -4.046875 1.75 -4.171875 C 1.664062 -4.296875 1.523438 -4.359375 1.328125 -4.359375 C 1.140625 -4.359375 1 -4.296875 0.90625 -4.171875 C 0.8125 -4.046875 0.765625 -3.875 0.765625 -3.65625 Z M 0.765625 -1.125 "/></g></g></g><g fill="#000000" fill-opacity="1"><g transform="translate(57.710115, 66.399412)"><g><path d="M 1.390625 -4.796875 C 1.765625 -4.796875 2.039062 -4.6875 2.21875 -4.46875 C 2.394531 -4.257812 2.484375 -3.96875 2.484375 -3.59375 L 2.484375 -1.1875 C 2.484375 -0.8125 2.394531 -0.519531 2.21875 -0.3125 C 2.039062 -0.101562 1.765625 0 1.390625 0 L 0.28125 0 L 0.28125 -4.796875 Z M 1.390625 -0.484375 C 1.578125 -0.484375 1.71875 -0.539062 1.8125 -0.65625 C 1.90625 -0.769531 1.953125 -0.9375 1.953125 -1.15625 L 1.953125 -3.625 C 1.953125 -3.84375 1.90625 -4.007812 1.8125 -4.125 C 1.71875 -4.25 1.570312 -4.3125 1.375 -4.3125 L 0.8125 -4.3125 L 0.8125 -0.484375 Z M 1.390625 -0.484375 "/></g></g></g><g fill="#000000" fill-opacity="1"><g transform="translate(61.390067, 66.399412)"><g><path d="M 1.984375 -2.671875 L 1.984375 -2.1875 L 0.8125 -2.1875 L 0.8125 -0.484375 L 2.25 -0.484375 L 2.25 0 L 0.28125 0 L 0.28125 -4.796875 L 2.25 -4.796875 L 2.25 -4.3125 L 0.8125 -4.3125 L 0.8125 -2.671875 Z M 1.984375 -2.671875 "/></g></g></g><g fill="#000000" fill-opacity="1"><g transform="translate(15.308893, 56.920897)"><g><path d="M 3.765625 -13.96875 C 4.835938 -13.96875 5.625 -13.648438 6.125 -13.015625 C 6.632812 -12.378906 6.890625 -11.535156 6.890625 -10.484375 L 6.890625 -9.25 L 5.4375 -9.25 L 5.4375 -10.5625 C 5.4375 -11.195312 5.304688 -11.6875 5.046875 -12.03125 C 4.785156 -12.382812 4.375 -12.5625 3.8125 -12.5625 C 3.257812 -12.5625 2.847656 -12.382812 2.578125 -12.03125 C 2.316406 -11.6875 2.1875 -11.195312 2.1875 -10.5625 L 2.1875 -3.265625 C 2.1875 -2.628906 2.316406 -2.132812 2.578125 -1.78125 C 2.847656 -1.4375 3.257812 -1.265625 3.8125 -1.265625 C 4.375 -1.265625 4.785156 -1.4375 5.046875 -1.78125 C 5.304688 -2.132812 5.4375 -2.628906 5.4375 -3.265625 L 5.4375 -5.0625 L 6.890625 -5.0625 L 6.890625 -3.34375 C 6.890625 -2.28125 6.632812 -1.429688 6.125 -0.796875 C 5.625 -0.171875 4.835938 0.140625 3.765625 0.140625 C 2.710938 0.140625 1.929688 -0.171875 1.421875 -0.796875 C 0.921875 -1.429688 0.671875 -2.28125 0.671875 -3.34375 L 0.671875 -10.484375 C 0.671875 -11.015625 0.734375 -11.492188 0.859375 -11.921875 C 0.984375 -12.347656 1.171875 -12.710938 1.421875 -13.015625 C 1.679688 -13.316406 2.003906 -13.550781 2.390625 -13.71875 C 2.785156 -13.882812 3.242188 -13.96875 3.765625 -13.96875 Z M 3.765625 -13.96875 "/></g></g></g><g fill="#000000" fill-opacity="1"><g transform="translate(22.491756, 56.920897)"><g><path d="M 0.671875 -10.484375 C 0.671875 -11.554688 0.929688 -12.40625 1.453125 -13.03125 C 1.972656 -13.65625 2.765625 -13.96875 3.828125 -13.96875 C 4.898438 -13.96875 5.695312 -13.65625 6.21875 -13.03125 C 6.75 -12.40625 7.015625 -11.554688 7.015625 -10.484375 L 7.015625 -3.34375 C 7.015625 -2.28125 6.75 -1.429688 6.21875 -0.796875 C 5.695312 -0.171875 4.898438 0.140625 3.828125 0.140625 C 2.765625 0.140625 1.972656 -0.171875 1.453125 -0.796875 C 0.929688 -1.429688 0.671875 -2.28125 0.671875 -3.34375 Z M 2.1875 -3.265625 C 2.1875 -2.628906 2.320312 -2.132812 2.59375 -1.78125 C 2.863281 -1.4375 3.273438 -1.265625 3.828125 -1.265625 C 4.398438 -1.265625 4.816406 -1.4375 5.078125 -1.78125 C 5.335938 -2.132812 5.46875 -2.628906 5.46875 -3.265625 L 5.46875 -10.5625 C 5.46875 -11.195312 5.335938 -11.6875 5.078125 -12.03125 C 4.816406 -12.382812 4.398438 -12.5625 3.828125 -12.5625 C 3.273438 -12.5625 2.863281 -12.382812 2.59375 -12.03125 C 2.320312 -11.6875 2.1875 -11.195312 2.1875 -10.5625 Z M 2.1875 -3.265625 "/></g></g></g><g fill="#000000" fill-opacity="1"><g transform="translate(30.72168, 56.920897)"><g><path d="M 4.03125 -13.828125 C 5.113281 -13.828125 5.90625 -13.519531 6.40625 -12.90625 C 6.914062 -12.289062 7.171875 -11.453125 7.171875 -10.390625 L 7.171875 -3.421875 C 7.171875 -2.347656 6.914062 -1.507812 6.40625 -0.90625 C 5.90625 -0.300781 5.113281 0 4.03125 0 L 0.796875 0 L 0.796875 -13.828125 Z M 4.015625 -1.40625 C 4.566406 -1.40625 4.976562 -1.570312 5.25 -1.90625 C 5.519531 -2.238281 5.65625 -2.722656 5.65625 -3.359375 L 5.65625 -10.46875 C 5.65625 -11.101562 5.519531 -11.585938 5.25 -11.921875 C 4.976562 -12.253906 4.554688 -12.421875 3.984375 -12.421875 L 2.328125 -12.421875 L 2.328125 -1.40625 Z M 4.015625 -1.40625 "/></g></g></g><g fill="#000000" fill-opacity="1"><g transform="translate(38.849896, 56.920897)"><g><path d="M 3.234375 -4.953125 L 0.3125 -13.828125 L 1.921875 -13.828125 L 4.0625 -7.03125 L 6.234375 -13.828125 L 7.703125 -13.828125 L 4.765625 -4.953125 L 4.765625 0 L 3.234375 0 Z M 3.234375 -4.953125 "/></g></g></g><g fill="#000000" fill-opacity="1"><g transform="translate(53.404087, 56.920897)"><g><path d="M 3.765625 -13.96875 C 4.835938 -13.96875 5.625 -13.648438 6.125 -13.015625 C 6.632812 -12.378906 6.890625 -11.535156 6.890625 -10.484375 L 6.890625 -9.25 L 5.4375 -9.25 L 5.4375 -10.5625 C 5.4375 -11.195312 5.304688 -11.6875 5.046875 -12.03125 C 4.785156 -12.382812 4.375 -12.5625 3.8125 -12.5625 C 3.257812 -12.5625 2.847656 -12.382812 2.578125 -12.03125 C 2.316406 -11.6875 2.1875 -11.195312 2.1875 -10.5625 L 2.1875 -3.265625 C 2.1875 -2.628906 2.316406 -2.132812 2.578125 -1.78125 C 2.847656 -1.4375 3.257812 -1.265625 3.8125 -1.265625 C 4.375 -1.265625 4.785156 -1.4375 5.046875 -1.78125 C 5.304688 -2.132812 5.4375 -2.628906 5.4375 -3.265625 L 5.4375 -5.0625 L 6.890625 -5.0625 L 6.890625 -3.34375 C 6.890625 -2.28125 6.632812 -1.429688 6.125 -0.796875 C 5.625 -0.171875 4.835938 0.140625 3.765625 0.140625 C 2.710938 0.140625 1.929688 -0.171875 1.421875 -0.796875 C 0.921875 -1.429688 0.671875 -2.28125 0.671875 -3.34375 L 0.671875 -10.484375 C 0.671875 -11.015625 0.734375 -11.492188 0.859375 -11.921875 C 0.984375 -12.347656 1.171875 -12.710938 1.421875 -13.015625 C 1.679688 -13.316406 2.003906 -13.550781 2.390625 -13.71875 C 2.785156 -13.882812 3.242188 -13.96875 3.765625 -13.96875 Z M 3.765625 -13.96875 "/></g></g></g><g fill="#000000" fill-opacity="1"><g transform="translate(60.586953, 56.920897)"><g><path d="M 0.671875 -10.484375 C 0.671875 -11.554688 0.929688 -12.40625 1.453125 -13.03125 C 1.972656 -13.65625 2.765625 -13.96875 3.828125 -13.96875 C 4.898438 -13.96875 5.695312 -13.65625 6.21875 -13.03125 C 6.75 -12.40625 7.015625 -11.554688 7.015625 -10.484375 L 7.015625 -3.34375 C 7.015625 -2.28125 6.75 -1.429688 6.21875 -0.796875 C 5.695312 -0.171875 4.898438 0.140625 3.828125 0.140625 C 2.765625 0.140625 1.972656 -0.171875 1.453125 -0.796875 C 0.929688 -1.429688 0.671875 -2.28125 0.671875 -3.34375 Z M 2.1875 -3.265625 C 2.1875 -2.628906 2.320312 -2.132812 2.59375 -1.78125 C 2.863281 -1.4375 3.273438 -1.265625 3.828125 -1.265625 C 4.398438 -1.265625 4.816406 -1.4375 5.078125 -1.78125 C 5.335938 -2.132812 5.46875 -2.628906 5.46875 -3.265625 L 5.46875 -10.5625 C 5.46875 -11.195312 5.335938 -11.6875 5.078125 -12.03125 C 4.816406 -12.382812 4.398438 -12.5625 3.828125 -12.5625 C 3.273438 -12.5625 2.863281 -12.382812 2.59375 -12.03125 C 2.320312 -11.6875 2.1875 -11.195312 2.1875 -10.5625 Z M 2.1875 -3.265625 "/></g></g></g><g fill="#000000" fill-opacity="1"><g transform="translate(68.816877, 56.920897)"><g><path d="M 4.03125 -13.828125 C 5.113281 -13.828125 5.90625 -13.519531 6.40625 -12.90625 C 6.914062 -12.289062 7.171875 -11.453125 7.171875 -10.390625 L 7.171875 -3.421875 C 7.171875 -2.347656 6.914062 -1.507812 6.40625 -0.90625 C 5.90625 -0.300781 5.113281 0 4.03125 0 L 0.796875 0 L 0.796875 -13.828125 Z M 4.015625 -1.40625 C 4.566406 -1.40625 4.976562 -1.570312 5.25 -1.90625 C 5.519531 -2.238281 5.65625 -2.722656 5.65625 -3.359375 L 5.65625 -10.46875 C 5.65625 -11.101562 5.519531 -11.585938 5.25 -11.921875 C 4.976562 -12.253906 4.554688 -12.421875 3.984375 -12.421875 L 2.328125 -12.421875 L 2.328125 -1.40625 Z M 4.015625 -1.40625 "/></g></g></g><g fill="#000000" fill-opacity="1"><g transform="translate(76.397627, 56.920897)"><g><path d="M 5.703125 -7.703125 L 5.703125 -6.3125 L 2.328125 -6.3125 L 2.328125 -1.40625 L 6.484375 -1.40625 L 6.484375 0 L 0.796875 0 L 0.796875 -13.828125 L 6.484375 -13.828125 L 6.484375 -12.421875 L 2.328125 -12.421875 L 2.328125 -7.703125 Z M 5.703125 -7.703125 "/></g></g></g><g fill="#000000" fill-opacity="1"><g transform="translate(45.943006, 56.920897)"><g><path d="M 6.40625 -2.78125 L 6.40625 0 L 4.890625 0 L 4.890625 -2.78125 L 0.4375 -2.78125 L 0.4375 -4.1875 L 4.71875 -13.828125 L 6.40625 -13.828125 L 6.40625 -4.1875 L 7.5 -4.1875 L 7.5 -2.78125 Z M 1.859375 -4.1875 L 4.890625 -4.1875 L 4.890625 -10.9375 Z M 1.859375 -4.1875 "/></g></g></g></svg>
